<svg xmlns="http://www.w3.org/2000/svg" xmlns:xlink="http://www.w3.org/1999/xlink" width="320" zoomAndPan="magnify" viewBox="0 0 240 239.999995" height="320" preserveAspectRatio="xMidYMid meet" version="1.0"><defs><g/></defs><path fill="#ffde59" d="M 11.25 0 L 228.75 0 C 234.964844 0 240 5.035156 240 11.25 L 240 228.75 C 240 234.964844 234.964844 240 228.75 240 L 11.25 240 C 5.035156 240 0 234.964844 0 228.75 L 0 11.25 C 0 5.035156 5.035156 0 11.25 0 " fill-opacity="1" fill-rule="nonzero"/><g fill="#ababab" fill-opacity="0.4"><g transform="translate(-23.987985, 245.984922)"><g><path d="M 77.5 -102.300781 C 99.820312 -99.820312 112.21875 -88.347656 112.21875 -69.75 C 112.21875 -54.871094 99.820312 -42.160156 84.007812 -42.160156 C 70.371094 -42.160156 59.519531 -45.570312 48.980469 -58.898438 L 9.300781 -29.757812 C 31.308594 -5.578125 57.660156 4.03125 84.007812 4.03125 C 124.617188 4.03125 162.128906 -28.210938 162.128906 -73.160156 C 162.128906 -117.800781 129.578125 -144.457031 90.210938 -146.9375 C 65.71875 -148.488281 57.96875 -158.097656 57.96875 -168.636719 C 57.96875 -181.347656 66.648438 -189.097656 79.359375 -189.097656 C 87.417969 -189.097656 97.648438 -184.136719 103.847656 -177.628906 L 141.667969 -205.21875 C 124 -226.296875 102.300781 -234.976562 79.359375 -234.976562 C 47.429688 -234.976562 11.46875 -207.386719 11.46875 -168.328125 C 11.46875 -132.058594 37.507812 -106.949219 77.5 -102.300781 Z M 77.5 -102.300781 "/></g></g></g><g fill="#eeeeee" fill-opacity="1"><g transform="translate(-37.688168, 232.284741)"><g><path d="M 77.5 -102.300781 C 99.820312 -99.820312 112.21875 -88.347656 112.21875 -69.75 C 112.21875 -54.871094 99.820312 -42.160156 84.007812 -42.160156 C 70.371094 -42.160156 59.519531 -45.570312 48.980469 -58.898438 L 9.300781 -29.757812 C 31.308594 -5.578125 57.660156 4.03125 84.007812 4.03125 C 124.617188 4.03125 162.128906 -28.210938 162.128906 -73.160156 C 162.128906 -117.800781 129.578125 -144.457031 90.210938 -146.9375 C 65.71875 -148.488281 57.96875 -158.097656 57.96875 -168.636719 C 57.96875 -181.347656 66.648438 -189.097656 79.359375 -189.097656 C 87.417969 -189.097656 97.648438 -184.136719 103.847656 -177.628906 L 141.667969 -205.21875 C 124 -226.296875 102.300781 -234.976562 79.359375 -234.976562 C 47.429688 -234.976562 11.46875 -207.386719 11.46875 -168.328125 C 11.46875 -132.058594 37.507812 -106.949219 77.5 -102.300781 Z M 77.5 -102.300781 "/></g></g></g></svg>