<svg xmlns="http://www.w3.org/2000/svg" xmlns:xlink="http://www.w3.org/1999/xlink" width="944" zoomAndPan="magnify" viewBox="0 0 708 226.499993" height="302" preserveAspectRatio="xMidYMid meet" version="1.0"><defs><g/></defs><g fill="#ababab" fill-opacity="1"><g transform="translate(39.137907, 89.784495)"><g><path d="M 22.265625 -8.875 L 22.265625 1.359375 L 5.515625 1.359375 L 5.515625 -68.796875 L 29.875 -68.796875 C 38.320312 -68.796875 45.441406 -65.84375 51.234375 -59.9375 C 56.734375 -54.320312 59.484375 -47.769531 59.484375 -40.28125 C 59.484375 -31.164062 56.644531 -23.679688 50.96875 -17.828125 C 45.175781 -11.859375 37.84375 -8.875 28.96875 -8.875 Z M 8.234375 -66.09375 L 8.234375 -1.359375 L 19.5625 -1.359375 L 19.5625 -11.59375 L 28.96875 -11.59375 C 37.050781 -11.59375 43.703125 -14.289062 48.921875 -19.6875 C 54.148438 -25.09375 56.765625 -31.957031 56.765625 -40.28125 C 56.765625 -46.976562 54.257812 -52.894531 49.25 -58.03125 C 44 -63.40625 37.539062 -66.09375 29.875 -66.09375 Z M 28.609375 -21.640625 L 19.5625 -21.640625 L 19.5625 -56.125 L 29.421875 -56.125 C 31.835938 -56.125 34.070312 -55.613281 36.125 -54.59375 C 38.050781 -53.6875 39.707031 -52.359375 41.09375 -50.609375 C 43.75 -47.285156 45.078125 -43.363281 45.078125 -38.84375 C 45.078125 -33.894531 43.691406 -29.847656 40.921875 -26.703125 C 37.898438 -23.328125 33.796875 -21.640625 28.609375 -21.640625 Z M 22.265625 -53.40625 L 22.265625 -24.359375 L 28.609375 -24.359375 C 32.953125 -24.359375 36.363281 -25.742188 38.84375 -28.515625 C 41.195312 -31.109375 42.375 -34.550781 42.375 -38.84375 C 42.375 -42.644531 41.207031 -46.019531 38.875 -48.96875 C 36.550781 -51.925781 33.398438 -53.40625 29.421875 -53.40625 Z M 22.265625 -53.40625 "/></g></g></g><g fill="#ababab" fill-opacity="1"><g transform="translate(112.644627, 89.784495)"><g><path d="M 39.015625 2.53125 C 34.128906 2.53125 29.421875 1.566406 24.890625 -0.359375 C 20.609375 -2.171875 16.75 -4.738281 13.3125 -8.0625 C 9.925781 -11.4375 7.328125 -15.296875 5.515625 -19.640625 C 3.648438 -24.234375 2.71875 -28.941406 2.71875 -33.765625 C 2.71875 -38.535156 3.648438 -43.242188 5.515625 -47.890625 C 7.328125 -52.171875 9.925781 -56.003906 13.3125 -59.390625 C 16.625 -62.710938 20.457031 -65.273438 24.8125 -67.078125 C 29.332031 -69.015625 34.035156 -69.984375 38.921875 -69.984375 C 43.816406 -69.984375 48.523438 -69.015625 53.046875 -67.078125 C 57.515625 -65.210938 61.378906 -62.648438 64.640625 -59.390625 C 67.898438 -56.128906 70.460938 -52.296875 72.328125 -47.890625 C 74.265625 -43.304688 75.234375 -38.597656 75.234375 -33.765625 C 75.234375 -28.878906 74.265625 -24.171875 72.328125 -19.640625 C 70.460938 -15.179688 67.898438 -11.320312 64.640625 -8.0625 C 61.203125 -4.738281 57.367188 -2.171875 53.140625 -0.359375 C 48.554688 1.566406 43.847656 2.53125 39.015625 2.53125 Z M 38.921875 -67.265625 C 29.628906 -67.265625 21.722656 -64.003906 15.203125 -57.484375 C 8.691406 -50.960938 5.4375 -43.054688 5.4375 -33.765625 C 5.4375 -24.472656 8.691406 -16.566406 15.203125 -10.046875 C 21.785156 -3.472656 29.722656 -0.1875 39.015625 -0.1875 C 48.253906 -0.1875 56.160156 -3.472656 62.734375 -10.046875 C 65.753906 -13.128906 68.140625 -16.691406 69.890625 -20.734375 C 71.640625 -24.898438 72.515625 -29.242188 72.515625 -33.765625 C 72.515625 -42.941406 69.253906 -50.847656 62.734375 -57.484375 C 56.210938 -64.003906 48.273438 -67.265625 38.921875 -67.265625 Z M 39.015625 -10.953125 C 32.859375 -10.953125 27.664062 -13.15625 23.4375 -17.5625 C 19.21875 -21.96875 17.109375 -27.367188 17.109375 -33.765625 C 17.109375 -40.046875 19.191406 -45.414062 23.359375 -49.875 C 27.640625 -54.34375 32.828125 -56.578125 38.921875 -56.578125 C 45.023438 -56.578125 50.21875 -54.34375 54.5 -49.875 C 58.726562 -45.351562 60.84375 -39.984375 60.84375 -33.765625 C 60.84375 -27.367188 58.726562 -21.96875 54.5 -17.5625 C 50.269531 -13.15625 45.109375 -10.953125 39.015625 -10.953125 Z M 52.5 -47.96875 C 48.757812 -51.894531 44.234375 -53.859375 38.921875 -53.859375 C 33.617188 -53.859375 29.09375 -51.898438 25.34375 -47.984375 C 21.664062 -44.117188 19.828125 -39.378906 19.828125 -33.765625 C 19.828125 -28.097656 21.664062 -23.332031 25.34375 -19.46875 C 29.09375 -15.601562 33.648438 -13.671875 39.015625 -13.671875 C 44.328125 -13.671875 48.828125 -15.601562 52.515625 -19.46875 C 56.253906 -23.332031 58.125 -28.097656 58.125 -33.765625 C 58.125 -39.316406 56.25 -44.050781 52.5 -47.96875 Z M 52.5 -47.96875 "/></g></g></g><g fill="#ababab" fill-opacity="1"><g transform="translate(202.807831, 89.784495)"><g><path d="M 45.359375 -15.125 L 60.84375 1.359375 L 38.46875 1.359375 L 27.4375 -10.328125 L 22.265625 -10.328125 L 22.265625 1.359375 L 5.515625 1.359375 L 5.515625 -68.796875 L 30.328125 -68.796875 C 38.535156 -68.796875 45.503906 -66.082031 51.234375 -60.65625 C 56.847656 -55.226562 59.65625 -48.648438 59.65625 -40.921875 C 59.65625 -34.585938 58.238281 -29.15625 55.40625 -24.625 C 52.988281 -20.644531 49.640625 -17.476562 45.359375 -15.125 Z M 28.609375 -13.03125 L 39.65625 -1.359375 L 54.59375 -1.359375 L 40.828125 -16.03125 L 42.546875 -16.84375 C 47.078125 -18.894531 50.609375 -21.972656 53.140625 -26.078125 C 55.671875 -30.234375 56.9375 -35.179688 56.9375 -40.921875 C 56.9375 -47.859375 54.40625 -53.773438 49.34375 -58.671875 C 44.207031 -63.617188 37.867188 -66.09375 30.328125 -66.09375 L 8.234375 -66.09375 L 8.234375 -1.359375 L 19.5625 -1.359375 L 19.5625 -13.03125 Z M 26.703125 -23 L 19.5625 -23 L 19.5625 -56.125 L 29.421875 -56.125 C 34.429688 -56.125 38.382812 -54.523438 41.28125 -51.328125 C 43.9375 -48.316406 45.265625 -44.484375 45.265625 -39.828125 C 45.265625 -34.398438 43.664062 -30.238281 40.46875 -27.34375 C 37.207031 -24.445312 32.617188 -23 26.703125 -23 Z M 22.265625 -53.40625 L 22.265625 -25.703125 L 26.703125 -25.703125 C 32.015625 -25.703125 36 -26.910156 38.65625 -29.328125 C 41.25 -31.679688 42.546875 -35.179688 42.546875 -39.828125 C 42.546875 -43.816406 41.460938 -47.046875 39.296875 -49.515625 C 36.992188 -52.109375 33.703125 -53.40625 29.421875 -53.40625 Z M 22.265625 -53.40625 "/></g></g></g><g fill="#ababab" fill-opacity="1"><g transform="translate(277.038747, 89.784495)"><g><path d="M 34.21875 -53.40625 L 34.21875 1.359375 L 17.46875 1.359375 L 17.46875 -53.40625 L 0.8125 -53.40625 L 0.8125 -68.796875 L 51.96875 -68.796875 L 51.96875 -53.40625 Z M 20.1875 -56.125 L 20.1875 -1.359375 L 31.5 -1.359375 L 31.5 -56.125 L 49.25 -56.125 L 49.25 -66.09375 L 3.53125 -66.09375 L 3.53125 -56.125 Z M 20.1875 -56.125 "/></g></g></g><g fill="#ababab" fill-opacity="1"><g transform="translate(342.036177, 89.784495)"><g><path d="M 22.265625 -28.25 L 22.265625 1.359375 L 5.515625 1.359375 L 5.515625 -68.796875 L 44.09375 -68.796875 L 44.09375 -53.40625 L 22.265625 -53.40625 L 22.265625 -43.546875 L 47.625 -43.546875 L 47.625 -28.25 Z M 8.234375 -66.09375 L 8.234375 -1.359375 L 19.5625 -1.359375 L 19.5625 -30.96875 L 44.90625 -30.96875 L 44.90625 -40.828125 L 19.5625 -40.828125 L 19.5625 -56.125 L 41.375 -56.125 L 41.375 -66.09375 Z M 8.234375 -66.09375 "/></g></g></g><g fill="#ababab" fill-opacity="1"><g transform="translate(403.684206, 89.784495)"><g><path d="M 39.015625 2.53125 C 34.128906 2.53125 29.421875 1.566406 24.890625 -0.359375 C 20.609375 -2.171875 16.75 -4.738281 13.3125 -8.0625 C 9.925781 -11.4375 7.328125 -15.296875 5.515625 -19.640625 C 3.648438 -24.234375 2.71875 -28.941406 2.71875 -33.765625 C 2.71875 -38.535156 3.648438 -43.242188 5.515625 -47.890625 C 7.328125 -52.171875 9.925781 -56.003906 13.3125 -59.390625 C 16.625 -62.710938 20.457031 -65.273438 24.8125 -67.078125 C 29.332031 -69.015625 34.035156 -69.984375 38.921875 -69.984375 C 43.816406 -69.984375 48.523438 -69.015625 53.046875 -67.078125 C 57.515625 -65.210938 61.378906 -62.648438 64.640625 -59.390625 C 67.898438 -56.128906 70.460938 -52.296875 72.328125 -47.890625 C 74.265625 -43.304688 75.234375 -38.597656 75.234375 -33.765625 C 75.234375 -28.878906 74.265625 -24.171875 72.328125 -19.640625 C 70.460938 -15.179688 67.898438 -11.320312 64.640625 -8.0625 C 61.203125 -4.738281 57.367188 -2.171875 53.140625 -0.359375 C 48.554688 1.566406 43.847656 2.53125 39.015625 2.53125 Z M 38.921875 -67.265625 C 29.628906 -67.265625 21.722656 -64.003906 15.203125 -57.484375 C 8.691406 -50.960938 5.4375 -43.054688 5.4375 -33.765625 C 5.4375 -24.472656 8.691406 -16.566406 15.203125 -10.046875 C 21.785156 -3.472656 29.722656 -0.1875 39.015625 -0.1875 C 48.253906 -0.1875 56.160156 -3.472656 62.734375 -10.046875 C 65.753906 -13.128906 68.140625 -16.691406 69.890625 -20.734375 C 71.640625 -24.898438 72.515625 -29.242188 72.515625 -33.765625 C 72.515625 -42.941406 69.253906 -50.847656 62.734375 -57.484375 C 56.210938 -64.003906 48.273438 -67.265625 38.921875 -67.265625 Z M 39.015625 -10.953125 C 32.859375 -10.953125 27.664062 -13.15625 23.4375 -17.5625 C 19.21875 -21.96875 17.109375 -27.367188 17.109375 -33.765625 C 17.109375 -40.046875 19.191406 -45.414062 23.359375 -49.875 C 27.640625 -54.34375 32.828125 -56.578125 38.921875 -56.578125 C 45.023438 -56.578125 50.21875 -54.34375 54.5 -49.875 C 58.726562 -45.351562 60.84375 -39.984375 60.84375 -33.765625 C 60.84375 -27.367188 58.726562 -21.96875 54.5 -17.5625 C 50.269531 -13.15625 45.109375 -10.953125 39.015625 -10.953125 Z M 52.5 -47.96875 C 48.757812 -51.894531 44.234375 -53.859375 38.921875 -53.859375 C 33.617188 -53.859375 29.09375 -51.898438 25.34375 -47.984375 C 21.664062 -44.117188 19.828125 -39.378906 19.828125 -33.765625 C 19.828125 -28.097656 21.664062 -23.332031 25.34375 -19.46875 C 29.09375 -15.601562 33.648438 -13.671875 39.015625 -13.671875 C 44.328125 -13.671875 48.828125 -15.601562 52.515625 -19.46875 C 56.253906 -23.332031 58.125 -28.097656 58.125 -33.765625 C 58.125 -39.316406 56.25 -44.050781 52.5 -47.96875 Z M 51.0625 -84.28125 L 42.90625 -71.796875 L 27.515625 -71.796875 L 40.28125 -91.984375 Z M 41.09375 -88.09375 L 32.5 -74.5 L 41.375 -74.5 L 47.34375 -83.65625 Z M 41.09375 -88.09375 "/></g></g></g><g fill="#ababab" fill-opacity="1"><g transform="translate(493.84741, 89.784495)"><g><path d="M 49.4375 -14.03125 L 49.4375 1.359375 L 5.515625 1.359375 L 5.515625 -68.796875 L 22.265625 -68.796875 L 22.265625 -14.03125 Z M 8.234375 -66.09375 L 8.234375 -1.359375 L 46.71875 -1.359375 L 46.71875 -11.3125 L 19.5625 -11.3125 L 19.5625 -66.09375 Z M 8.234375 -66.09375 "/></g></g></g><g fill="#ababab" fill-opacity="1"><g transform="translate(555.948083, 89.784495)"><g><path d="M 22.265625 -68.796875 L 22.265625 1.359375 L 5.515625 1.359375 L 5.515625 -68.796875 Z M 8.234375 -66.09375 L 8.234375 -1.359375 L 19.5625 -1.359375 L 19.5625 -66.09375 Z M 8.234375 -66.09375 "/></g></g></g><g fill="#ababab" fill-opacity="1"><g transform="translate(595.960765, 89.784495)"><g><path d="M 39.015625 2.53125 C 34.128906 2.53125 29.421875 1.566406 24.890625 -0.359375 C 20.609375 -2.171875 16.75 -4.738281 13.3125 -8.0625 C 9.925781 -11.4375 7.328125 -15.296875 5.515625 -19.640625 C 3.648438 -24.234375 2.71875 -28.941406 2.71875 -33.765625 C 2.71875 -38.535156 3.648438 -43.242188 5.515625 -47.890625 C 7.328125 -52.171875 9.925781 -56.003906 13.3125 -59.390625 C 16.625 -62.710938 20.457031 -65.273438 24.8125 -67.078125 C 29.332031 -69.015625 34.035156 -69.984375 38.921875 -69.984375 C 43.816406 -69.984375 48.523438 -69.015625 53.046875 -67.078125 C 57.515625 -65.210938 61.378906 -62.648438 64.640625 -59.390625 C 67.898438 -56.128906 70.460938 -52.296875 72.328125 -47.890625 C 74.265625 -43.304688 75.234375 -38.597656 75.234375 -33.765625 C 75.234375 -28.878906 74.265625 -24.171875 72.328125 -19.640625 C 70.460938 -15.179688 67.898438 -11.320312 64.640625 -8.0625 C 61.203125 -4.738281 57.367188 -2.171875 53.140625 -0.359375 C 48.554688 1.566406 43.847656 2.53125 39.015625 2.53125 Z M 38.921875 -67.265625 C 29.628906 -67.265625 21.722656 -64.003906 15.203125 -57.484375 C 8.691406 -50.960938 5.4375 -43.054688 5.4375 -33.765625 C 5.4375 -24.472656 8.691406 -16.566406 15.203125 -10.046875 C 21.785156 -3.472656 29.722656 -0.1875 39.015625 -0.1875 C 48.253906 -0.1875 56.160156 -3.472656 62.734375 -10.046875 C 65.753906 -13.128906 68.140625 -16.691406 69.890625 -20.734375 C 71.640625 -24.898438 72.515625 -29.242188 72.515625 -33.765625 C 72.515625 -42.941406 69.253906 -50.847656 62.734375 -57.484375 C 56.210938 -64.003906 48.273438 -67.265625 38.921875 -67.265625 Z M 39.015625 -10.953125 C 32.859375 -10.953125 27.664062 -13.15625 23.4375 -17.5625 C 19.21875 -21.96875 17.109375 -27.367188 17.109375 -33.765625 C 17.109375 -40.046875 19.191406 -45.414062 23.359375 -49.875 C 27.640625 -54.34375 32.828125 -56.578125 38.921875 -56.578125 C 45.023438 -56.578125 50.21875 -54.34375 54.5 -49.875 C 58.726562 -45.351562 60.84375 -39.984375 60.84375 -33.765625 C 60.84375 -27.367188 58.726562 -21.96875 54.5 -17.5625 C 50.269531 -13.15625 45.109375 -10.953125 39.015625 -10.953125 Z M 52.5 -47.96875 C 48.757812 -51.894531 44.234375 -53.859375 38.921875 -53.859375 C 33.617188 -53.859375 29.09375 -51.898438 25.34375 -47.984375 C 21.664062 -44.117188 19.828125 -39.378906 19.828125 -33.765625 C 19.828125 -28.097656 21.664062 -23.332031 25.34375 -19.46875 C 29.09375 -15.601562 33.648438 -13.671875 39.015625 -13.671875 C 44.328125 -13.671875 48.828125 -15.601562 52.515625 -19.46875 C 56.253906 -23.332031 58.125 -28.097656 58.125 -33.765625 C 58.125 -39.316406 56.25 -44.050781 52.5 -47.96875 Z M 52.5 -47.96875 "/></g></g></g><g fill="#000000" fill-opacity="0.302"><g transform="translate(36.730803, 208.869209)"><g><path d="M 35.34375 3.59375 C 29.457031 3.59375 23.820312 2.476562 18.4375 0.25 C 12.71875 -2.21875 7.597656 -5.972656 3.078125 -11.015625 L 1.671875 -12.546875 L 21.265625 -27.03125 L 22.40625 -25.484375 C 25.570312 -21.390625 29.882812 -19.34375 35.34375 -19.34375 C 38.082031 -19.34375 40.390625 -20.257812 42.265625 -22.09375 C 44.140625 -23.925781 45.078125 -26.164062 45.078125 -28.8125 C 45.078125 -35.5625 40.851562 -39.40625 32.40625 -40.34375 C 23.695312 -41.363281 16.695312 -44.476562 11.40625 -49.6875 C 6.101562 -54.988281 3.453125 -61.609375 3.453125 -69.546875 C 3.453125 -77.742188 6.695312 -84.832031 13.1875 -90.8125 C 16.09375 -93.457031 19.296875 -95.460938 22.796875 -96.828125 C 26.378906 -98.273438 29.921875 -99 33.421875 -99 C 38.628906 -99 43.457031 -97.976562 47.90625 -95.9375 C 52.769531 -93.707031 56.992188 -90.414062 60.578125 -86.0625 L 61.984375 -84.40625 L 43.296875 -70.828125 L 42.140625 -72.109375 C 39.410156 -74.835938 36.503906 -76.203125 33.421875 -76.203125 C 31.285156 -76.203125 29.597656 -75.625 28.359375 -74.46875 C 27.128906 -73.320312 26.515625 -71.722656 26.515625 -69.671875 C 26.515625 -67.878906 27.238281 -66.425781 28.6875 -65.3125 C 30.65625 -63.78125 33.773438 -62.882812 38.046875 -62.625 C 46.921875 -62.113281 54.304688 -59.039062 60.203125 -53.40625 C 66.429688 -47.425781 69.546875 -39.695312 69.546875 -30.21875 C 69.546875 -20.570312 66.046875 -12.460938 59.046875 -5.890625 C 55.796875 -2.816406 52.164062 -0.507812 48.15625 1.03125 C 43.96875 2.738281 39.695312 3.59375 35.34375 3.59375 Z M 20.625 -21.765625 L 7.421875 -12.046875 C 11.179688 -8.203125 15.367188 -5.296875 19.984375 -3.328125 C 24.679688 -1.273438 29.800781 -0.25 35.34375 -0.25 C 43.375 -0.25 50.421875 -3.066406 56.484375 -8.703125 C 62.628906 -14.597656 65.703125 -21.769531 65.703125 -30.21875 C 65.703125 -38.59375 62.96875 -45.382812 57.5 -50.59375 C 52.289062 -55.539062 45.71875 -58.269531 37.78125 -58.78125 C 32.832031 -59.039062 28.988281 -60.195312 26.25 -62.25 C 23.863281 -64.207031 22.671875 -66.679688 22.671875 -69.671875 C 22.671875 -72.742188 23.671875 -75.238281 25.671875 -77.15625 C 27.679688 -79.082031 30.265625 -80.046875 33.421875 -80.046875 C 37.015625 -80.046875 40.429688 -78.640625 43.671875 -75.828125 L 56.359375 -85.046875 C 50.035156 -91.785156 42.390625 -95.15625 33.421875 -95.15625 C 26.929688 -95.15625 21.039062 -92.765625 15.75 -87.984375 C 10.113281 -82.867188 7.296875 -76.722656 7.296875 -69.546875 C 7.296875 -62.628906 9.578125 -56.882812 14.140625 -52.3125 C 18.710938 -47.75 24.972656 -45.039062 32.921875 -44.1875 C 38.035156 -43.5 41.921875 -41.921875 44.578125 -39.453125 C 47.472656 -36.710938 48.921875 -33.164062 48.921875 -28.8125 C 48.921875 -25.144531 47.597656 -22.007812 44.953125 -19.40625 C 42.304688 -16.800781 39.101562 -15.5 35.34375 -15.5 C 32.019531 -15.5 29.203125 -16.007812 26.890625 -17.03125 C 24.585938 -18.0625 22.5 -19.640625 20.625 -21.765625 Z M 20.625 -21.765625 "/></g></g></g><g fill="#000000" fill-opacity="0.302"><g transform="translate(118.188123, 208.869209)"><g><path d="M 50.328125 -101.3125 L 104 1.921875 L 78 1.921875 L 71.71875 -10.765625 L 27.796875 -10.765625 L 21.640625 1.921875 L -3.203125 1.921875 Z M 74.03125 -14.59375 L 80.3125 -1.921875 L 97.59375 -1.921875 L 50.328125 -92.984375 L 3.203125 -1.921875 L 19.34375 -1.921875 L 25.484375 -14.59375 Z M 49.5625 -64.9375 L 67.234375 -28.8125 L 32.140625 -28.8125 Z M 49.5625 -56.09375 L 38.296875 -32.65625 L 61.09375 -32.65625 Z M 49.5625 -56.09375 "/></g></g></g><g fill="#000000" fill-opacity="0.302"><g transform="translate(227.694252, 208.869209)"><g><path d="M 113.21875 -101.046875 L 113.21875 1.921875 L 89.65625 1.921875 L 89.65625 -53.796875 L 60.578125 -32.78125 L 31.5 -53.796875 L 31.5 1.921875 L 7.8125 1.921875 L 7.8125 -101.046875 L 60.578125 -60.96875 Z M 93.5 -61.34375 L 93.5 -1.921875 L 109.375 -1.921875 L 109.375 -93.234375 L 60.578125 -56.21875 L 11.65625 -93.234375 L 11.65625 -1.921875 L 27.671875 -1.921875 L 27.671875 -61.34375 L 60.578125 -37.53125 Z M 93.5 -61.34375 "/></g></g></g><g fill="#000000" fill-opacity="0.302"><g transform="translate(357.820727, 208.869209)"><g><path d="M 50.328125 -101.3125 L 104 1.921875 L 78 1.921875 L 71.71875 -10.765625 L 27.796875 -10.765625 L 21.640625 1.921875 L -3.203125 1.921875 Z M 74.03125 -14.59375 L 80.3125 -1.921875 L 97.59375 -1.921875 L 50.328125 -92.984375 L 3.203125 -1.921875 L 19.34375 -1.921875 L 25.484375 -14.59375 Z M 49.5625 -64.9375 L 67.234375 -28.8125 L 32.140625 -28.8125 Z M 49.5625 -56.09375 L 38.296875 -32.65625 L 61.09375 -32.65625 Z M 49.5625 -56.09375 "/></g></g></g><g fill="#000000" fill-opacity="0.302"><g transform="translate(467.326856, 208.869209)"><g><path d="M 64.171875 -21.390625 L 86.0625 1.921875 L 54.4375 1.921875 L 38.8125 -14.59375 L 31.5 -14.59375 L 31.5 1.921875 L 7.8125 1.921875 L 7.8125 -97.34375 L 42.90625 -97.34375 C 54.519531 -97.34375 64.382812 -93.5 72.5 -85.8125 C 80.4375 -78.125 84.40625 -68.816406 84.40625 -57.890625 C 84.40625 -48.921875 82.398438 -41.238281 78.390625 -34.84375 C 74.972656 -29.207031 70.234375 -24.722656 64.171875 -21.390625 Z M 40.46875 -18.4375 L 56.09375 -1.921875 L 77.234375 -1.921875 L 57.765625 -22.671875 L 60.203125 -23.828125 C 66.597656 -26.722656 71.59375 -31.078125 75.1875 -36.890625 C 78.769531 -42.773438 80.5625 -49.773438 80.5625 -57.890625 C 80.5625 -67.710938 76.972656 -76.082031 69.796875 -83 C 62.546875 -90 53.582031 -93.5 42.90625 -93.5 L 11.65625 -93.5 L 11.65625 -1.921875 L 27.671875 -1.921875 L 27.671875 -18.4375 Z M 37.78125 -32.53125 L 27.671875 -32.53125 L 27.671875 -79.40625 L 41.625 -79.40625 C 48.707031 -79.40625 54.300781 -77.144531 58.40625 -72.625 C 62.164062 -68.351562 64.046875 -62.929688 64.046875 -56.359375 C 64.046875 -48.671875 61.78125 -42.773438 57.25 -38.671875 C 52.632812 -34.578125 46.144531 -32.53125 37.78125 -32.53125 Z M 31.5 -75.5625 L 31.5 -36.375 L 37.78125 -36.375 C 45.289062 -36.375 50.925781 -38.082031 54.6875 -41.5 C 58.363281 -44.832031 60.203125 -49.785156 60.203125 -56.359375 C 60.203125 -61.992188 58.664062 -66.5625 55.59375 -70.0625 C 52.34375 -73.726562 47.6875 -75.5625 41.625 -75.5625 Z M 31.5 -75.5625 "/></g></g></g><g fill="#000000" fill-opacity="0.302"><g transform="translate(564.025291, 208.869209)"><g><path d="M 50.328125 -101.3125 L 104 1.921875 L 78 1.921875 L 71.71875 -10.765625 L 27.796875 -10.765625 L 21.640625 1.921875 L -3.203125 1.921875 Z M 74.03125 -14.59375 L 80.3125 -1.921875 L 97.59375 -1.921875 L 50.328125 -92.984375 L 3.203125 -1.921875 L 19.34375 -1.921875 L 25.484375 -14.59375 Z M 49.5625 -64.9375 L 67.234375 -28.8125 L 32.140625 -28.8125 Z M 49.5625 -56.09375 L 38.296875 -32.65625 L 61.09375 -32.65625 Z M 49.5625 -56.09375 "/></g></g></g><g fill="#000000" fill-opacity="0.502"><g transform="translate(39.669442, 204.672387)"><g><path d="M 35.34375 3.59375 C 29.457031 3.59375 23.820312 2.476562 18.4375 0.25 C 12.71875 -2.21875 7.597656 -5.972656 3.078125 -11.015625 L 1.671875 -12.546875 L 21.265625 -27.03125 L 22.40625 -25.484375 C 25.570312 -21.390625 29.882812 -19.34375 35.34375 -19.34375 C 38.082031 -19.34375 40.390625 -20.257812 42.265625 -22.09375 C 44.140625 -23.925781 45.078125 -26.164062 45.078125 -28.8125 C 45.078125 -35.5625 40.851562 -39.40625 32.40625 -40.34375 C 23.695312 -41.363281 16.695312 -44.476562 11.40625 -49.6875 C 6.101562 -54.988281 3.453125 -61.609375 3.453125 -69.546875 C 3.453125 -77.742188 6.695312 -84.832031 13.1875 -90.8125 C 16.09375 -93.457031 19.296875 -95.460938 22.796875 -96.828125 C 26.378906 -98.273438 29.921875 -99 33.421875 -99 C 38.628906 -99 43.457031 -97.976562 47.90625 -95.9375 C 52.769531 -93.707031 56.992188 -90.414062 60.578125 -86.0625 L 61.984375 -84.40625 L 43.296875 -70.828125 L 42.140625 -72.109375 C 39.410156 -74.835938 36.503906 -76.203125 33.421875 -76.203125 C 31.285156 -76.203125 29.597656 -75.625 28.359375 -74.46875 C 27.128906 -73.320312 26.515625 -71.722656 26.515625 -69.671875 C 26.515625 -67.878906 27.238281 -66.425781 28.6875 -65.3125 C 30.65625 -63.78125 33.773438 -62.882812 38.046875 -62.625 C 46.921875 -62.113281 54.304688 -59.039062 60.203125 -53.40625 C 66.429688 -47.425781 69.546875 -39.695312 69.546875 -30.21875 C 69.546875 -20.570312 66.046875 -12.460938 59.046875 -5.890625 C 55.796875 -2.816406 52.164062 -0.507812 48.15625 1.03125 C 43.96875 2.738281 39.695312 3.59375 35.34375 3.59375 Z M 20.625 -21.765625 L 7.421875 -12.046875 C 11.179688 -8.203125 15.367188 -5.296875 19.984375 -3.328125 C 24.679688 -1.273438 29.800781 -0.25 35.34375 -0.25 C 43.375 -0.25 50.421875 -3.066406 56.484375 -8.703125 C 62.628906 -14.597656 65.703125 -21.769531 65.703125 -30.21875 C 65.703125 -38.59375 62.96875 -45.382812 57.5 -50.59375 C 52.289062 -55.539062 45.71875 -58.269531 37.78125 -58.78125 C 32.832031 -59.039062 28.988281 -60.195312 26.25 -62.25 C 23.863281 -64.207031 22.671875 -66.679688 22.671875 -69.671875 C 22.671875 -72.742188 23.671875 -75.238281 25.671875 -77.15625 C 27.679688 -79.082031 30.265625 -80.046875 33.421875 -80.046875 C 37.015625 -80.046875 40.429688 -78.640625 43.671875 -75.828125 L 56.359375 -85.046875 C 50.035156 -91.785156 42.390625 -95.15625 33.421875 -95.15625 C 26.929688 -95.15625 21.039062 -92.765625 15.75 -87.984375 C 10.113281 -82.867188 7.296875 -76.722656 7.296875 -69.546875 C 7.296875 -62.628906 9.578125 -56.882812 14.140625 -52.3125 C 18.710938 -47.75 24.972656 -45.039062 32.921875 -44.1875 C 38.035156 -43.5 41.921875 -41.921875 44.578125 -39.453125 C 47.472656 -36.710938 48.921875 -33.164062 48.921875 -28.8125 C 48.921875 -25.144531 47.597656 -22.007812 44.953125 -19.40625 C 42.304688 -16.800781 39.101562 -15.5 35.34375 -15.5 C 32.019531 -15.5 29.203125 -16.007812 26.890625 -17.03125 C 24.585938 -18.0625 22.5 -19.640625 20.625 -21.765625 Z M 20.625 -21.765625 "/></g></g></g><g fill="#000000" fill-opacity="0.502"><g transform="translate(121.126762, 204.672387)"><g><path d="M 50.328125 -101.3125 L 104 1.921875 L 78 1.921875 L 71.71875 -10.765625 L 27.796875 -10.765625 L 21.640625 1.921875 L -3.203125 1.921875 Z M 74.03125 -14.59375 L 80.3125 -1.921875 L 97.59375 -1.921875 L 50.328125 -92.984375 L 3.203125 -1.921875 L 19.34375 -1.921875 L 25.484375 -14.59375 Z M 49.5625 -64.9375 L 67.234375 -28.8125 L 32.140625 -28.8125 Z M 49.5625 -56.09375 L 38.296875 -32.65625 L 61.09375 -32.65625 Z M 49.5625 -56.09375 "/></g></g></g><g fill="#000000" fill-opacity="0.502"><g transform="translate(230.632891, 204.672387)"><g><path d="M 113.21875 -101.046875 L 113.21875 1.921875 L 89.65625 1.921875 L 89.65625 -53.796875 L 60.578125 -32.78125 L 31.5 -53.796875 L 31.5 1.921875 L 7.8125 1.921875 L 7.8125 -101.046875 L 60.578125 -60.96875 Z M 93.5 -61.34375 L 93.5 -1.921875 L 109.375 -1.921875 L 109.375 -93.234375 L 60.578125 -56.21875 L 11.65625 -93.234375 L 11.65625 -1.921875 L 27.671875 -1.921875 L 27.671875 -61.34375 L 60.578125 -37.53125 Z M 93.5 -61.34375 "/></g></g></g><g fill="#000000" fill-opacity="0.502"><g transform="translate(360.759366, 204.672387)"><g><path d="M 50.328125 -101.3125 L 104 1.921875 L 78 1.921875 L 71.71875 -10.765625 L 27.796875 -10.765625 L 21.640625 1.921875 L -3.203125 1.921875 Z M 74.03125 -14.59375 L 80.3125 -1.921875 L 97.59375 -1.921875 L 50.328125 -92.984375 L 3.203125 -1.921875 L 19.34375 -1.921875 L 25.484375 -14.59375 Z M 49.5625 -64.9375 L 67.234375 -28.8125 L 32.140625 -28.8125 Z M 49.5625 -56.09375 L 38.296875 -32.65625 L 61.09375 -32.65625 Z M 49.5625 -56.09375 "/></g></g></g><g fill="#000000" fill-opacity="0.502"><g transform="translate(470.265495, 204.672387)"><g><path d="M 64.171875 -21.390625 L 86.0625 1.921875 L 54.4375 1.921875 L 38.8125 -14.59375 L 31.5 -14.59375 L 31.5 1.921875 L 7.8125 1.921875 L 7.8125 -97.34375 L 42.90625 -97.34375 C 54.519531 -97.34375 64.382812 -93.5 72.5 -85.8125 C 80.4375 -78.125 84.40625 -68.816406 84.40625 -57.890625 C 84.40625 -48.921875 82.398438 -41.238281 78.390625 -34.84375 C 74.972656 -29.207031 70.234375 -24.722656 64.171875 -21.390625 Z M 40.46875 -18.4375 L 56.09375 -1.921875 L 77.234375 -1.921875 L 57.765625 -22.671875 L 60.203125 -23.828125 C 66.597656 -26.722656 71.59375 -31.078125 75.1875 -36.890625 C 78.769531 -42.773438 80.5625 -49.773438 80.5625 -57.890625 C 80.5625 -67.710938 76.972656 -76.082031 69.796875 -83 C 62.546875 -90 53.582031 -93.5 42.90625 -93.5 L 11.65625 -93.5 L 11.65625 -1.921875 L 27.671875 -1.921875 L 27.671875 -18.4375 Z M 37.78125 -32.53125 L 27.671875 -32.53125 L 27.671875 -79.40625 L 41.625 -79.40625 C 48.707031 -79.40625 54.300781 -77.144531 58.40625 -72.625 C 62.164062 -68.351562 64.046875 -62.929688 64.046875 -56.359375 C 64.046875 -48.671875 61.78125 -42.773438 57.25 -38.671875 C 52.632812 -34.578125 46.144531 -32.53125 37.78125 -32.53125 Z M 31.5 -75.5625 L 31.5 -36.375 L 37.78125 -36.375 C 45.289062 -36.375 50.925781 -38.082031 54.6875 -41.5 C 58.363281 -44.832031 60.203125 -49.785156 60.203125 -56.359375 C 60.203125 -61.992188 58.664062 -66.5625 55.59375 -70.0625 C 52.34375 -73.726562 47.6875 -75.5625 41.625 -75.5625 Z M 31.5 -75.5625 "/></g></g></g><g fill="#000000" fill-opacity="0.502"><g transform="translate(566.963931, 204.672387)"><g><path d="M 50.328125 -101.3125 L 104 1.921875 L 78 1.921875 L 71.71875 -10.765625 L 27.796875 -10.765625 L 21.640625 1.921875 L -3.203125 1.921875 Z M 74.03125 -14.59375 L 80.3125 -1.921875 L 97.59375 -1.921875 L 50.328125 -92.984375 L 3.203125 -1.921875 L 19.34375 -1.921875 L 25.484375 -14.59375 Z M 49.5625 -64.9375 L 67.234375 -28.8125 L 32.140625 -28.8125 Z M 49.5625 -56.09375 L 38.296875 -32.65625 L 61.09375 -32.65625 Z M 49.5625 -56.09375 "/></g></g></g><g fill="#000000" fill-opacity="1"><g transform="translate(42.608081, 200.475573)"><g><path d="M 35.34375 3.59375 C 29.457031 3.59375 23.820312 2.476562 18.4375 0.25 C 12.71875 -2.21875 7.597656 -5.972656 3.078125 -11.015625 L 1.671875 -12.546875 L 21.265625 -27.03125 L 22.40625 -25.484375 C 25.570312 -21.390625 29.882812 -19.34375 35.34375 -19.34375 C 38.082031 -19.34375 40.390625 -20.257812 42.265625 -22.09375 C 44.140625 -23.925781 45.078125 -26.164062 45.078125 -28.8125 C 45.078125 -35.5625 40.851562 -39.40625 32.40625 -40.34375 C 23.695312 -41.363281 16.695312 -44.476562 11.40625 -49.6875 C 6.101562 -54.988281 3.453125 -61.609375 3.453125 -69.546875 C 3.453125 -77.742188 6.695312 -84.832031 13.1875 -90.8125 C 16.09375 -93.457031 19.296875 -95.460938 22.796875 -96.828125 C 26.378906 -98.273438 29.921875 -99 33.421875 -99 C 38.628906 -99 43.457031 -97.976562 47.90625 -95.9375 C 52.769531 -93.707031 56.992188 -90.414062 60.578125 -86.0625 L 61.984375 -84.40625 L 43.296875 -70.828125 L 42.140625 -72.109375 C 39.410156 -74.835938 36.503906 -76.203125 33.421875 -76.203125 C 31.285156 -76.203125 29.597656 -75.625 28.359375 -74.46875 C 27.128906 -73.320312 26.515625 -71.722656 26.515625 -69.671875 C 26.515625 -67.878906 27.238281 -66.425781 28.6875 -65.3125 C 30.65625 -63.78125 33.773438 -62.882812 38.046875 -62.625 C 46.921875 -62.113281 54.304688 -59.039062 60.203125 -53.40625 C 66.429688 -47.425781 69.546875 -39.695312 69.546875 -30.21875 C 69.546875 -20.570312 66.046875 -12.460938 59.046875 -5.890625 C 55.796875 -2.816406 52.164062 -0.507812 48.15625 1.03125 C 43.96875 2.738281 39.695312 3.59375 35.34375 3.59375 Z M 20.625 -21.765625 L 7.421875 -12.046875 C 11.179688 -8.203125 15.367188 -5.296875 19.984375 -3.328125 C 24.679688 -1.273438 29.800781 -0.25 35.34375 -0.25 C 43.375 -0.25 50.421875 -3.066406 56.484375 -8.703125 C 62.628906 -14.597656 65.703125 -21.769531 65.703125 -30.21875 C 65.703125 -38.59375 62.96875 -45.382812 57.5 -50.59375 C 52.289062 -55.539062 45.71875 -58.269531 37.78125 -58.78125 C 32.832031 -59.039062 28.988281 -60.195312 26.25 -62.25 C 23.863281 -64.207031 22.671875 -66.679688 22.671875 -69.671875 C 22.671875 -72.742188 23.671875 -75.238281 25.671875 -77.15625 C 27.679688 -79.082031 30.265625 -80.046875 33.421875 -80.046875 C 37.015625 -80.046875 40.429688 -78.640625 43.671875 -75.828125 L 56.359375 -85.046875 C 50.035156 -91.785156 42.390625 -95.15625 33.421875 -95.15625 C 26.929688 -95.15625 21.039062 -92.765625 15.75 -87.984375 C 10.113281 -82.867188 7.296875 -76.722656 7.296875 -69.546875 C 7.296875 -62.628906 9.578125 -56.882812 14.140625 -52.3125 C 18.710938 -47.75 24.972656 -45.039062 32.921875 -44.1875 C 38.035156 -43.5 41.921875 -41.921875 44.578125 -39.453125 C 47.472656 -36.710938 48.921875 -33.164062 48.921875 -28.8125 C 48.921875 -25.144531 47.597656 -22.007812 44.953125 -19.40625 C 42.304688 -16.800781 39.101562 -15.5 35.34375 -15.5 C 32.019531 -15.5 29.203125 -16.007812 26.890625 -17.03125 C 24.585938 -18.0625 22.5 -19.640625 20.625 -21.765625 Z M 20.625 -21.765625 "/></g></g></g><g fill="#000000" fill-opacity="1"><g transform="translate(124.065401, 200.475573)"><g><path d="M 50.328125 -101.3125 L 104 1.921875 L 78 1.921875 L 71.71875 -10.765625 L 27.796875 -10.765625 L 21.640625 1.921875 L -3.203125 1.921875 Z M 74.03125 -14.59375 L 80.3125 -1.921875 L 97.59375 -1.921875 L 50.328125 -92.984375 L 3.203125 -1.921875 L 19.34375 -1.921875 L 25.484375 -14.59375 Z M 49.5625 -64.9375 L 67.234375 -28.8125 L 32.140625 -28.8125 Z M 49.5625 -56.09375 L 38.296875 -32.65625 L 61.09375 -32.65625 Z M 49.5625 -56.09375 "/></g></g></g><g fill="#000000" fill-opacity="1"><g transform="translate(233.57153, 200.475573)"><g><path d="M 113.21875 -101.046875 L 113.21875 1.921875 L 89.65625 1.921875 L 89.65625 -53.796875 L 60.578125 -32.78125 L 31.5 -53.796875 L 31.5 1.921875 L 7.8125 1.921875 L 7.8125 -101.046875 L 60.578125 -60.96875 Z M 93.5 -61.34375 L 93.5 -1.921875 L 109.375 -1.921875 L 109.375 -93.234375 L 60.578125 -56.21875 L 11.65625 -93.234375 L 11.65625 -1.921875 L 27.671875 -1.921875 L 27.671875 -61.34375 L 60.578125 -37.53125 Z M 93.5 -61.34375 "/></g></g></g><g fill="#000000" fill-opacity="1"><g transform="translate(363.698005, 200.475573)"><g><path d="M 50.328125 -101.3125 L 104 1.921875 L 78 1.921875 L 71.71875 -10.765625 L 27.796875 -10.765625 L 21.640625 1.921875 L -3.203125 1.921875 Z M 74.03125 -14.59375 L 80.3125 -1.921875 L 97.59375 -1.921875 L 50.328125 -92.984375 L 3.203125 -1.921875 L 19.34375 -1.921875 L 25.484375 -14.59375 Z M 49.5625 -64.9375 L 67.234375 -28.8125 L 32.140625 -28.8125 Z M 49.5625 -56.09375 L 38.296875 -32.65625 L 61.09375 -32.65625 Z M 49.5625 -56.09375 "/></g></g></g><g fill="#000000" fill-opacity="1"><g transform="translate(473.204134, 200.475573)"><g><path d="M 64.171875 -21.390625 L 86.0625 1.921875 L 54.4375 1.921875 L 38.8125 -14.59375 L 31.5 -14.59375 L 31.5 1.921875 L 7.8125 1.921875 L 7.8125 -97.34375 L 42.90625 -97.34375 C 54.519531 -97.34375 64.382812 -93.5 72.5 -85.8125 C 80.4375 -78.125 84.40625 -68.816406 84.40625 -57.890625 C 84.40625 -48.921875 82.398438 -41.238281 78.390625 -34.84375 C 74.972656 -29.207031 70.234375 -24.722656 64.171875 -21.390625 Z M 40.46875 -18.4375 L 56.09375 -1.921875 L 77.234375 -1.921875 L 57.765625 -22.671875 L 60.203125 -23.828125 C 66.597656 -26.722656 71.59375 -31.078125 75.1875 -36.890625 C 78.769531 -42.773438 80.5625 -49.773438 80.5625 -57.890625 C 80.5625 -67.710938 76.972656 -76.082031 69.796875 -83 C 62.546875 -90 53.582031 -93.5 42.90625 -93.5 L 11.65625 -93.5 L 11.65625 -1.921875 L 27.671875 -1.921875 L 27.671875 -18.4375 Z M 37.78125 -32.53125 L 27.671875 -32.53125 L 27.671875 -79.40625 L 41.625 -79.40625 C 48.707031 -79.40625 54.300781 -77.144531 58.40625 -72.625 C 62.164062 -68.351562 64.046875 -62.929688 64.046875 -56.359375 C 64.046875 -48.671875 61.78125 -42.773438 57.25 -38.671875 C 52.632812 -34.578125 46.144531 -32.53125 37.78125 -32.53125 Z M 31.5 -75.5625 L 31.5 -36.375 L 37.78125 -36.375 C 45.289062 -36.375 50.925781 -38.082031 54.6875 -41.5 C 58.363281 -44.832031 60.203125 -49.785156 60.203125 -56.359375 C 60.203125 -61.992188 58.664062 -66.5625 55.59375 -70.0625 C 52.34375 -73.726562 47.6875 -75.5625 41.625 -75.5625 Z M 31.5 -75.5625 "/></g></g></g><g fill="#000000" fill-opacity="1"><g transform="translate(569.90257, 200.475573)"><g><path d="M 50.328125 -101.3125 L 104 1.921875 L 78 1.921875 L 71.71875 -10.765625 L 27.796875 -10.765625 L 21.640625 1.921875 L -3.203125 1.921875 Z M 74.03125 -14.59375 L 80.3125 -1.921875 L 97.59375 -1.921875 L 50.328125 -92.984375 L 3.203125 -1.921875 L 19.34375 -1.921875 L 25.484375 -14.59375 Z M 49.5625 -64.9375 L 67.234375 -28.8125 L 32.140625 -28.8125 Z M 49.5625 -56.09375 L 38.296875 -32.65625 L 61.09375 -32.65625 Z M 49.5625 -56.09375 "/></g></g></g></svg>